<?xml version="1.0" encoding="UTF-8"?>
<svg version="1.1" xmlns="http://www.w3.org/2000/svg" width="160" height="160">
<path d="M0,0 L50,0 L50,10 L60,10 L60,60 L50,60 L50,70 L40,70 L40,80 L30,80 L30,90 L20,90 L20,100 L0,100 L0,110 L-30,110 L-30,90 L-50,90 L-50,60 L-40,60 L-40,40 L-30,40 L-30,30 L-20,30 L-20,20 L-10,20 L-10,10 L0,10 Z M40,10 L40,20 L50,20 L50,10 Z M30,20 L30,30 L40,30 L40,20 Z M20,30 L20,40 L30,40 L30,30 Z M10,40 L10,50 L20,50 L20,40 Z M-10,50 L-10,60 L-20,60 L-20,80 L0,80 L0,70 L10,70 L10,50 Z " fill="#6F352B" transform="translate(80,20)"/>
<path d="M0,0 L50,0 L50,10 L40,10 L40,20 L30,20 L30,30 L20,30 L20,40 L10,40 L10,50 L-10,50 L-10,60 L-30,60 L-30,90 L-50,90 L-50,60 L-40,60 L-40,40 L-30,40 L-30,30 L-20,30 L-20,20 L-10,20 L-10,10 L0,10 Z " fill="#8B4336" transform="translate(80,20)"/>
<path d="M0,0 L10,0 L10,40 L-10,40 L-10,50 L-20,50 L-20,60 L-30,60 L-30,50 L-40,50 L-40,40 L-30,40 L-30,30 L-20,30 L-20,20 L-10,20 L-10,10 L0,10 Z " fill="#D5D5D5" transform="translate(130,30)"/>
<path d="M0,0 L40,0 L40,10 L30,10 L30,20 L20,20 L20,30 L10,30 L10,40 L0,40 L0,50 L-10,50 L-10,40 L-20,40 L-20,30 L-10,30 L-10,20 L0,20 Z " fill="#D5D5D5" transform="translate(90,20)"/>
<path d="M0,0 L20,0 L20,10 L10,10 L10,20 L0,20 L0,30 L-10,30 L-10,40 L-40,40 L-40,20 L-30,20 L-30,10 L-20,10 L-20,20 L-10,20 L-10,10 L0,10 Z " fill="#6F352B" transform="translate(120,70)"/>
<path d="M0,0 L10,0 L10,50 L-10,50 L-10,20 L0,20 Z " fill="#8B4336" transform="translate(40,60)"/>
<path d="M0,0 L20,0 L20,10 L10,10 L10,20 L0,20 L0,30 L-10,30 L-10,10 L0,10 Z " fill="#5C2D1F" transform="translate(120,70)"/>
<path d="M0,0 L20,0 L20,10 L10,10 L10,20 L0,20 Z " fill="#5C2D1F" transform="translate(60,60)"/>
<path d="M0,0 L20,0 L20,10 L0,10 Z " fill="#424242" transform="translate(30,130)"/>
<path d="M0,0 L20,0 L20,10 L0,10 Z " fill="#5C2D1F" transform="translate(60,120)"/>
<path d="M0,0 L10,0 L10,20 L0,20 Z " fill="#707070" transform="translate(20,110)"/>
<path d="M0,0 L20,0 L20,10 L0,10 Z " fill="#5C2D1F" transform="translate(80,110)"/>
<path d="M0,0 L20,0 L20,10 L0,10 Z " fill="#8B4336" transform="translate(60,110)"/>
<path d="M0,0 L20,0 L20,10 L0,10 Z " fill="#8B4336" transform="translate(80,100)"/>
<path d="M0,0 L20,0 L20,10 L0,10 Z " fill="#A8A8A8" transform="translate(30,100)"/>
<path d="M0,0 L10,0 L10,20 L0,20 Z " fill="#5C2D1F" transform="translate(50,80)"/>
<path d="M0,0 L10,0 L10,20 L0,20 Z " fill="#6F352B" transform="translate(30,80)"/>
<path d="M0,0 L20,0 L20,10 L0,10 Z " fill="#5C2D1F" transform="translate(120,70)"/>
<path d="M0,0 L10,0 L10,20 L0,20 Z " fill="#A64F3F" transform="translate(50,60)"/>
<path d="M0,0 L10,0 L10,20 L0,20 Z " fill="#6F352B" transform="translate(40,60)"/>
<path d="M0,0 L20,0 L20,10 L0,10 Z " fill="#A64F3F" transform="translate(50,50)"/>
<path d="M0,0 L10,0 L10,20 L0,20 Z " fill="#707070" transform="translate(80,20)"/>
<path d="M0,0 L10,0 L10,10 L0,10 Z " fill="#424242" transform="translate(50,120)"/>
<path d="M0,0 L10,0 L10,10 L0,10 Z " fill="#707070" transform="translate(50,110)"/>
<path d="M0,0 L10,0 L10,10 L0,10 Z " fill="#A8A8A8" transform="translate(20,110)"/>
<path d="M0,0 L10,0 L10,10 L0,10 Z " fill="#5C2D1F" transform="translate(100,100)"/>
<path d="M0,0 L10,0 L10,10 L0,10 Z " fill="#5C2D1F" transform="translate(110,90)"/>
<path d="M0,0 L10,0 L10,10 L0,10 Z " fill="#6F352B" transform="translate(110,80)"/>
<path d="M0,0 L10,0 L10,10 L0,10 Z " fill="#A8A8A8" transform="translate(100,80)"/>
<path d="M0,0 L10,0 L10,10 L0,10 Z " fill="#707070" transform="translate(90,80)"/>
<path d="M0,0 L10,0 L10,10 L0,10 Z " fill="#A64F3F" transform="translate(40,80)"/>
<path d="M0,0 L10,0 L10,10 L0,10 Z " fill="#707070" transform="translate(120,70)"/>
<path d="M0,0 L10,0 L10,10 L0,10 Z " fill="#A8A8A8" transform="translate(110,70)"/>
<path d="M0,0 L10,0 L10,10 L0,10 Z " fill="#A8A8A8" transform="translate(90,70)"/>
<path d="M0,0 L10,0 L10,10 L0,10 Z " fill="#A8A8A8" transform="translate(130,60)"/>
<path d="M0,0 L10,0 L10,10 L0,10 Z " fill="#A8A8A8" transform="translate(100,60)"/>
<path d="M0,0 L10,0 L10,10 L0,10 Z " fill="#A8A8A8" transform="translate(80,60)"/>
<path d="M0,0 L10,0 L10,10 L0,10 Z " fill="#707070" transform="translate(70,60)"/>
<path d="M0,0 L10,0 L10,10 L0,10 Z " fill="#A8A8A8" transform="translate(110,50)"/>
<path d="M0,0 L10,0 L10,10 L0,10 Z " fill="#A8A8A8" transform="translate(90,50)"/>
<path d="M0,0 L10,0 L10,10 L0,10 Z " fill="#A8A8A8" transform="translate(70,50)"/>
<path d="M0,0 L10,0 L10,10 L0,10 Z " fill="#6F352B" transform="translate(50,50)"/>
<path d="M0,0 L10,0 L10,10 L0,10 Z " fill="#A8A8A8" transform="translate(120,40)"/>
<path d="M0,0 L10,0 L10,10 L0,10 Z " fill="#A8A8A8" transform="translate(100,40)"/>
<path d="M0,0 L10,0 L10,10 L0,10 Z " fill="#A8A8A8" transform="translate(80,40)"/>
<path d="M0,0 L10,0 L10,10 L0,10 Z " fill="#6F352B" transform="translate(60,40)"/>
<path d="M0,0 L10,0 L10,10 L0,10 Z " fill="#A8A8A8" transform="translate(130,30)"/>
<path d="M0,0 L10,0 L10,10 L0,10 Z " fill="#A8A8A8" transform="translate(110,30)"/>
<path d="M0,0 L10,0 L10,10 L0,10 Z " fill="#6F352B" transform="translate(70,30)"/>
<path d="M0,0 L10,0 L10,10 L0,10 Z " fill="#A8A8A8" transform="translate(120,20)"/>
<path d="M0,0 L10,0 L10,10 L0,10 Z " fill="#A8A8A8" transform="translate(90,20)"/>
<path d="M0,0 L10,0 L10,10 L0,10 Z " fill="#6F352B" transform="translate(80,20)"/>
</svg>
